<svg width="696" height="193" viewBox="0 0 696 193" fill="none" xmlns="http://www.w3.org/2000/svg">
<rect x="515" y="141" width="53" height="52" rx="16" fill="#F5F5F5"/>
<rect x="261" y="141" width="51" height="52" rx="16" fill="#F5F5F5"/>
<rect x="129" width="51" height="52" rx="16" fill="#F5F5F5"/>
<rect x="578" y="141" width="118" height="52" rx="14" fill="#F5F5F5"/>
<rect x="133" y="141" width="118" height="52" rx="14" fill="#F5F5F5"/>
<rect width="118" height="52" rx="14" fill="#F5F5F5"/>
<rect x="450" width="118" height="52" rx="14" fill="#F5F5F5"/>
<path d="M287 135.061C287 135.061 287.309 107.268 287.791 63.9283C288.273 20.589 338.271 26.7989 375.817 27.2164" stroke="black" stroke-dasharray="3 3"/>
<path d="M416 60.9744C416 60.9744 416.309 88.7682 416.791 132.107C417.273 175.447 467.271 169.237 504.817 168.819" stroke="black" stroke-dasharray="3 3"/>
<path d="M150.05 42.15L153.933 38.8833C154.517 38.3833 155.483 38.3833 156.067 38.8833L159.95 42.15C160.85 42.6 161.95 42.15 162.283 41.1833L163.017 38.9666C163.2 38.4333 163.017 37.65 162.617 37.25L158.833 33.45C158.55 33.1833 158.333 32.65 158.333 32.2666V27.5166C158.333 26.8166 158.85 26.4833 159.5 26.75L167.683 30.2833C168.967 30.8333 170.017 30.15 170.017 28.75V26.6C170.017 25.4833 169.183 24.2 168.15 23.7666L158.833 19.75C158.567 19.6333 158.333 19.2833 158.333 18.9833V13.9833C158.333 12.4166 157.183 10.5666 155.783 9.84998C155.283 9.59998 154.7 9.59998 154.2 9.84998C152.8 10.5666 151.65 12.4333 151.65 14V19C151.65 19.3 151.417 19.65 151.15 19.7666L141.85 23.7833C140.817 24.2 139.983 25.4833 139.983 26.6V28.75C139.983 30.15 141.033 30.8333 142.317 30.2833L150.5 26.75C151.133 26.4666 151.667 26.8166 151.667 27.5166V32.2666C151.667 32.65 151.45 33.1833 151.183 33.45L147.4 37.25C147 37.65 146.817 38.4166 147 38.9666L147.733 41.1833C148.033 42.15 149.133 42.6166 150.05 42.15Z" stroke="#292D32" stroke-width="1.5" stroke-linecap="round" stroke-linejoin="round"/>
<rect x="389" width="53" height="52" rx="16" fill="#F5F5F5"/>
<path d="M530.889 162.625C534.03 162.625 536.576 160.079 536.576 156.938C536.576 153.796 534.03 151.25 530.889 151.25C527.748 151.25 525.201 153.796 525.201 156.938C525.201 160.079 527.748 162.625 530.889 162.625Z" stroke="#292D32" stroke-width="1.5"/>
<path d="M549.576 172.375H554.451C556.239 172.375 557.701 173.837 557.701 175.625V180.5C557.701 182.288 556.239 183.75 554.451 183.75H549.576C547.789 183.75 546.326 182.288 546.326 180.5V175.625C546.326 173.837 547.789 172.375 549.576 172.375Z" stroke="#292D32" stroke-width="1.5"/>
<path d="M541.5 156.125H545.855C548.861 156.125 550.259 159.846 548 161.829L535.016 173.188C532.758 175.154 534.155 178.875 537.145 178.875H541.5" stroke="#292D32" stroke-width="1.5" stroke-linecap="round" stroke-linejoin="round"/>
<path d="M530.915 156.938H530.934" stroke="#292D32" stroke-width="2" stroke-linecap="round" stroke-linejoin="round"/>
<path d="M552.04 178.062H552.059" stroke="#292D32" stroke-width="2" stroke-linecap="round" stroke-linejoin="round"/>
<path d="M280.333 150.25V155.125" stroke="#292D32" stroke-width="1.5" stroke-miterlimit="10" stroke-linecap="round" stroke-linejoin="round"/>
<path d="M293.667 150.25V155.125" stroke="#292D32" stroke-width="1.5" stroke-miterlimit="10" stroke-linecap="round" stroke-linejoin="round"/>
<path d="M272.833 161.771H301.167" stroke="#292D32" stroke-width="1.5" stroke-miterlimit="10" stroke-linecap="round" stroke-linejoin="round"/>
<path d="M302 160.812V174.625C302 179.5 299.5 182.75 293.667 182.75H280.333C274.5 182.75 272 179.5 272 174.625V160.812C272 155.938 274.5 152.688 280.333 152.688H293.667C299.5 152.688 302 155.938 302 160.812Z" stroke="#292D32" stroke-width="1.5" stroke-miterlimit="10" stroke-linecap="round" stroke-linejoin="round"/>
<path d="M286.992 169.263H287.007" stroke="#292D32" stroke-width="2" stroke-linecap="round" stroke-linejoin="round"/>
<path d="M280.824 169.263H280.839" stroke="#292D32" stroke-width="2" stroke-linecap="round" stroke-linejoin="round"/>
<path d="M280.824 174.138H280.839" stroke="#292D32" stroke-width="2" stroke-linecap="round" stroke-linejoin="round"/>
<path d="M409.333 42.75H422.667C429.367 42.75 430.567 40.1338 430.917 36.9488L432.167 23.9488C432.617 19.9838 431.45 16.75 424.333 16.75H407.667C400.55 16.75 399.383 19.9838 399.833 23.9488L401.083 36.9488C401.433 40.1338 402.633 42.75 409.333 42.75Z" stroke="#292D32" stroke-width="1.5" stroke-miterlimit="10" stroke-linecap="round" stroke-linejoin="round"/>
<path d="M409.333 16.75V15.45C409.333 12.5737 409.333 10.25 414.667 10.25H417.333C422.667 10.25 422.667 12.5737 422.667 15.45V16.75" stroke="#292D32" stroke-width="1.5" stroke-miterlimit="10" stroke-linecap="round" stroke-linejoin="round"/>
<path d="M419.333 28.125V29.75C419.333 29.7662 419.333 29.7663 419.333 29.7825C419.333 31.5538 419.317 33 416 33C412.7 33 412.667 31.57 412.667 29.7987V28.125C412.667 26.5 412.667 26.5 414.333 26.5H417.667C419.333 26.5 419.333 26.5 419.333 28.125Z" stroke="#292D32" stroke-width="1.5" stroke-miterlimit="10" stroke-linecap="round" stroke-linejoin="round"/>
<path d="M432.083 24.875C428.233 27.605 423.833 29.23 419.333 29.7825" stroke="#292D32" stroke-width="1.5" stroke-miterlimit="10" stroke-linecap="round" stroke-linejoin="round"/>
<path d="M400.367 25.3137C404.117 27.8162 408.35 29.3275 412.667 29.7987" stroke="#292D32" stroke-width="1.5" stroke-miterlimit="10" stroke-linecap="round" stroke-linejoin="round"/>
<path d="M279.82 135.061C279.82 135.061 279.511 107.268 279.029 63.9283C278.546 20.589 228.548 26.7989 191.003 27.2164" stroke="black" stroke-dasharray="3 3"/>
<path d="M598.57 169C597.805 169 597.277 168.865 596.988 168.594C596.904 169.21 596.675 169.775 596.302 170.288C595.938 170.801 595.434 171.235 594.79 171.59C593.819 172.113 592.559 172.509 591.01 172.78L590.8 172.136C590.772 172.015 590.725 171.856 590.66 171.66C592.76 171.287 594.183 170.825 594.93 170.274C595.677 169.723 596.05 169.135 596.05 168.51C596.05 168.202 595.994 167.726 595.882 167.082C595.77 166.429 595.639 165.808 595.49 165.22L596.582 164.87C596.713 165.738 596.848 166.373 596.988 166.774C597.128 167.166 597.324 167.437 597.576 167.586C597.828 167.735 598.206 167.81 598.71 167.81L598.57 169ZM605.015 169C603.494 169 602.36 168.851 601.613 168.552C600.792 168.851 599.779 169 598.575 169C598.538 169 598.505 168.963 598.477 168.888C598.449 168.813 598.435 168.711 598.435 168.58C598.435 168.375 598.463 168.197 598.519 168.048C598.575 167.889 598.64 167.81 598.715 167.81C599.228 167.81 599.658 167.791 600.003 167.754C599.798 167.493 599.695 167.161 599.695 166.76C599.695 166.265 599.807 165.757 600.031 165.234C600.255 164.711 600.549 164.277 600.913 163.932C601.286 163.577 601.674 163.4 602.075 163.4C602.467 163.4 602.822 163.512 603.139 163.736C603.456 163.96 603.708 164.259 603.895 164.632C604.082 165.005 604.175 165.411 604.175 165.85C604.175 166.569 603.848 167.203 603.195 167.754C603.652 167.791 604.306 167.81 605.155 167.81L605.015 169ZM600.605 166.41C600.605 166.662 600.698 166.9 600.885 167.124C601.081 167.339 601.342 167.493 601.669 167.586C602.164 167.39 602.551 167.166 602.831 166.914C603.12 166.653 603.265 166.438 603.265 166.27C603.265 166.009 603.2 165.747 603.069 165.486C602.948 165.225 602.775 165.01 602.551 164.842C602.336 164.674 602.108 164.59 601.865 164.59C601.669 164.59 601.473 164.697 601.277 164.912C601.081 165.117 600.918 165.365 600.787 165.654C600.666 165.943 600.605 166.195 600.605 166.41ZM601.095 162V160.6H602.635V162H601.095ZM614.814 164.24C614.889 164.641 614.954 165.141 615.01 165.738C615.066 166.335 615.094 166.839 615.094 167.25C615.094 167.782 614.954 168.207 614.674 168.524C614.394 168.841 614.068 169 613.694 169C613.2 169 612.766 168.911 612.392 168.734C612.019 168.547 611.748 168.286 611.58 167.95C611.375 168.295 611.109 168.557 610.782 168.734C610.456 168.911 610.096 169 609.704 169C609.275 169 608.892 168.911 608.556 168.734C608.23 168.557 608.006 168.295 607.884 167.95C607.436 168.65 606.48 169 605.014 169C604.977 169 604.944 168.963 604.916 168.888C604.888 168.813 604.874 168.711 604.874 168.58C604.874 168.375 604.902 168.197 604.958 168.048C605.014 167.889 605.08 167.81 605.154 167.81C605.994 167.81 606.61 167.684 607.002 167.432C607.404 167.171 607.604 166.76 607.604 166.2V165.444L608.584 165.36V166.41C608.584 166.839 608.692 167.18 608.906 167.432C609.121 167.684 609.434 167.81 609.844 167.81C610.218 167.81 610.53 167.679 610.782 167.418C611.044 167.147 611.174 166.835 611.174 166.48V165.584L612.154 165.5V166.41C612.154 166.83 612.299 167.171 612.588 167.432C612.887 167.684 613.279 167.81 613.764 167.81C613.867 167.81 613.951 167.777 614.016 167.712C614.082 167.647 614.114 167.563 614.114 167.46C614.114 167.199 614.072 166.769 613.988 166.172C613.914 165.565 613.83 165.029 613.736 164.562L614.814 164.24ZM630.008 163.75C629.821 163.535 629.653 163.377 629.504 163.274C629.354 163.171 629.196 163.12 629.028 163.12C628.738 163.12 628.393 163.293 627.992 163.638C627.6 163.974 627.254 164.366 626.956 164.814C626.657 165.253 626.508 165.598 626.508 165.85C626.508 165.999 626.582 166.13 626.732 166.242C626.881 166.345 627.11 166.424 627.418 166.48L629.308 166.83C629.634 166.886 629.868 167.021 630.008 167.236C630.148 167.441 630.218 167.679 630.218 167.95C630.218 168.258 630.134 168.58 629.966 168.916C629.807 169.252 629.564 169.56 629.238 169.84C628.603 170.381 627.796 170.797 626.816 171.086C625.845 171.375 624.879 171.52 623.918 171.52C622.648 171.52 621.701 171.263 621.076 170.75C620.45 170.237 620.138 169.513 620.138 168.58C620.138 167.656 620.371 166.401 620.838 164.814L621.72 165.066C621.542 165.71 621.407 166.303 621.314 166.844C621.23 167.385 621.188 167.824 621.188 168.16C621.188 168.832 621.444 169.359 621.958 169.742C622.471 170.134 623.194 170.33 624.128 170.33C624.986 170.33 625.808 170.213 626.592 169.98C627.376 169.747 628.01 169.476 628.496 169.168C628.99 168.86 629.238 168.617 629.238 168.44C629.238 168.253 628.981 168.113 628.468 168.02L626.928 167.74C626.424 167.647 626.064 167.483 625.85 167.25C625.635 167.017 625.528 166.713 625.528 166.34C625.528 165.752 625.728 165.113 626.13 164.422C626.531 163.722 627.026 163.134 627.614 162.658C628.202 162.173 628.743 161.93 629.238 161.93C629.555 161.93 629.84 162.023 630.092 162.21C630.344 162.387 630.572 162.667 630.778 163.05L630.008 163.75ZM636.728 169C636 169 635.487 168.879 635.188 168.636C635.179 169.373 635.053 169.999 634.81 170.512C634.577 171.035 634.143 171.487 633.508 171.87C632.883 172.253 631.996 172.579 630.848 172.85L630.428 171.73C631.455 171.459 632.243 171.184 632.794 170.904C633.345 170.633 633.718 170.353 633.914 170.064C634.11 169.784 634.208 169.476 634.208 169.14C634.208 168.552 634.152 167.913 634.04 167.222C633.937 166.522 633.807 165.855 633.648 165.22L634.74 164.87C634.871 165.738 635.006 166.373 635.146 166.774C635.286 167.166 635.482 167.437 635.734 167.586C635.986 167.735 636.364 167.81 636.868 167.81L636.728 169ZM633.368 162.84V161.44H634.908V162.84H633.368ZM641.661 164.1C641.745 164.529 641.829 165.043 641.913 165.64C642.006 166.228 642.053 166.648 642.053 166.9C642.053 167.236 641.964 167.572 641.787 167.908C641.61 168.235 641.372 168.473 641.073 168.622C640.774 168.762 640.378 168.86 639.883 168.916C639.388 168.972 638.758 169 637.993 169H636.733C636.696 169 636.663 168.963 636.635 168.888C636.607 168.813 636.593 168.711 636.593 168.58C636.593 168.375 636.621 168.197 636.677 168.048C636.733 167.889 636.798 167.81 636.873 167.81H638.133C639.244 167.81 640.009 167.768 640.429 167.684C640.858 167.6 641.073 167.479 641.073 167.32C641.073 167.115 641.017 166.695 640.905 166.06C640.802 165.416 640.695 164.87 640.583 164.422L641.661 164.1ZM638.903 170.68H639.043H640.723V171.8H639.043H638.903H637.223V170.68H638.903ZM646.293 164.8C646.592 166.293 646.741 167.553 646.741 168.58C646.741 169.336 646.62 169.971 646.377 170.484C646.144 171.007 645.71 171.464 645.075 171.856C644.45 172.248 643.558 172.579 642.401 172.85L641.981 171.73C643.008 171.459 643.796 171.184 644.347 170.904C644.898 170.633 645.271 170.353 645.467 170.064C645.663 169.784 645.761 169.476 645.761 169.14C645.761 168.617 645.705 167.987 645.593 167.25C645.49 166.503 645.36 165.803 645.201 165.15L646.293 164.8ZM658.368 169C657.64 169 657.075 168.874 656.674 168.622C656.282 168.37 655.997 167.941 655.82 167.334C655.503 167.437 655.12 167.521 654.672 167.586C654.233 167.642 653.809 167.67 653.398 167.67C652.838 167.67 652.427 167.572 652.166 167.376C651.914 167.18 651.788 166.928 651.788 166.62C651.788 165.976 652.199 165.267 653.02 164.492C653.543 164.007 654.289 163.456 655.26 162.84C655.223 162.476 655.185 162.117 655.148 161.762L656.198 161.51L656.618 165.78C656.693 166.508 656.865 167.031 657.136 167.348C657.407 167.656 657.864 167.81 658.508 167.81L658.368 169ZM652.768 166.06C652.768 166.2 652.861 166.307 653.048 166.382C653.235 166.447 653.491 166.48 653.818 166.48C654.051 166.48 654.336 166.461 654.672 166.424C655.017 166.377 655.335 166.326 655.624 166.27C655.559 165.514 655.475 164.721 655.372 163.89C654.597 164.385 653.967 164.833 653.482 165.234C653.006 165.626 652.768 165.901 652.768 166.06ZM663.332 163.89C663.677 163.89 663.957 163.979 664.172 164.156C664.396 164.324 664.559 164.585 664.662 164.94C664.895 165.715 665.012 166.531 665.012 167.39C665.012 167.605 664.947 167.838 664.816 168.09C664.695 168.342 664.531 168.557 664.326 168.734C664.13 168.911 663.925 169 663.71 169C663.439 169 663.108 168.949 662.716 168.846C662.333 168.743 661.965 168.594 661.61 168.398C661.265 168.202 661.008 167.973 660.84 167.712C660.504 168.216 660.149 168.557 659.776 168.734C659.403 168.911 658.931 169 658.362 169C658.325 169 658.292 168.963 658.264 168.888C658.236 168.813 658.222 168.711 658.222 168.58C658.222 168.375 658.25 168.197 658.306 168.048C658.362 167.889 658.427 167.81 658.502 167.81C658.829 167.81 659.104 167.773 659.328 167.698C659.561 167.623 659.781 167.483 659.986 167.278C660.191 167.063 660.397 166.751 660.602 166.34C660.919 165.696 661.204 165.206 661.456 164.87C661.708 164.525 661.979 164.277 662.268 164.128C662.557 163.969 662.912 163.89 663.332 163.89ZM661.4 166.718C661.615 167.035 661.979 167.297 662.492 167.502C663.005 167.707 663.463 167.81 663.864 167.81C663.92 167.81 663.957 167.787 663.976 167.74C664.004 167.693 664.018 167.605 664.018 167.474C664.018 167.287 663.985 166.975 663.92 166.536C663.855 166.097 663.775 165.752 663.682 165.5C663.635 165.36 663.561 165.243 663.458 165.15C663.365 165.057 663.253 165.01 663.122 165.01C662.777 165.01 662.483 165.122 662.24 165.346C662.007 165.561 661.764 165.939 661.512 166.48L661.4 166.718ZM670.051 169C669.155 169 668.497 168.776 668.077 168.328C667.657 167.871 667.438 167.161 667.419 166.2L667.251 158.29L668.371 158.22V165.71C668.371 167.11 668.978 167.81 670.191 167.81L670.051 169ZM673.089 164.1C673.173 164.529 673.257 165.043 673.341 165.64C673.435 166.228 673.481 166.648 673.481 166.9C673.481 167.236 673.393 167.572 673.215 167.908C673.038 168.235 672.8 168.473 672.501 168.622C671.988 168.874 671.171 169 670.051 169C670.014 169 669.981 168.963 669.953 168.888C669.925 168.813 669.911 168.711 669.911 168.58C669.911 168.375 669.939 168.197 669.995 168.048C670.051 167.889 670.117 167.81 670.191 167.81C671.731 167.81 672.501 167.647 672.501 167.32C672.501 167.049 672.455 166.62 672.361 166.032C672.277 165.435 672.161 164.898 672.011 164.422L673.089 164.1ZM671.521 162.7V161.3H673.061V162.7H671.521ZM679.439 169C678.674 169 678.146 168.865 677.857 168.594C677.773 169.21 677.544 169.775 677.171 170.288C676.807 170.801 676.303 171.235 675.659 171.59C674.688 172.113 673.428 172.509 671.879 172.78L671.669 172.136C671.641 172.015 671.594 171.856 671.529 171.66C673.629 171.287 675.052 170.825 675.799 170.274C676.546 169.723 676.919 169.135 676.919 168.51C676.919 168.202 676.863 167.726 676.751 167.082C676.639 166.429 676.508 165.808 676.359 165.22L677.451 164.87C677.582 165.738 677.717 166.373 677.857 166.774C677.997 167.166 678.193 167.437 678.445 167.586C678.697 167.735 679.075 167.81 679.579 167.81L679.439 169ZM682.482 164.1C682.566 164.529 682.65 165.043 682.734 165.64C682.827 166.228 682.874 166.648 682.874 166.9C682.874 167.236 682.785 167.572 682.608 167.908C682.431 168.235 682.193 168.473 681.894 168.622C681.381 168.874 680.564 169 679.444 169C679.407 169 679.374 168.963 679.346 168.888C679.318 168.813 679.304 168.711 679.304 168.58C679.304 168.375 679.332 168.197 679.388 168.048C679.444 167.889 679.509 167.81 679.584 167.81C681.124 167.81 681.894 167.647 681.894 167.32C681.894 167.049 681.847 166.62 681.754 166.032C681.67 165.435 681.553 164.898 681.404 164.422L682.482 164.1ZM679.934 172.08V170.68H681.474V172.08H679.934Z" fill="black"/>
<path d="M481.281 28C480.516 28 479.988 27.8647 479.699 27.594C479.615 28.21 479.386 28.7747 479.013 29.288C478.649 29.8013 478.145 30.2353 477.501 30.59C476.53 31.1127 475.27 31.5093 473.721 31.78L473.511 31.136C473.483 31.0147 473.436 30.856 473.371 30.66C475.471 30.2867 476.894 29.8247 477.641 29.274C478.388 28.7233 478.761 28.1353 478.761 27.51C478.761 27.202 478.705 26.726 478.593 26.082C478.481 25.4287 478.35 24.808 478.201 24.22L479.293 23.87C479.424 24.738 479.559 25.3727 479.699 25.774C479.839 26.166 480.035 26.4367 480.287 26.586C480.539 26.7353 480.917 26.81 481.421 26.81L481.281 28ZM487.726 28C486.204 28 485.07 27.8507 484.324 27.552C483.502 27.8507 482.49 28 481.286 28C481.248 28 481.216 27.9627 481.188 27.888C481.16 27.8133 481.146 27.7107 481.146 27.58C481.146 27.3747 481.174 27.1973 481.23 27.048C481.286 26.8893 481.351 26.81 481.426 26.81C481.939 26.81 482.368 26.7913 482.714 26.754C482.508 26.4927 482.406 26.1613 482.406 25.76C482.406 25.2653 482.518 24.7567 482.742 24.234C482.966 23.7113 483.26 23.2773 483.624 22.932C483.997 22.5773 484.384 22.4 484.786 22.4C485.178 22.4 485.532 22.512 485.85 22.736C486.167 22.96 486.419 23.2587 486.606 23.632C486.792 24.0053 486.886 24.4113 486.886 24.85C486.886 25.5687 486.559 26.2033 485.906 26.754C486.363 26.7913 487.016 26.81 487.866 26.81L487.726 28ZM483.316 25.41C483.316 25.662 483.409 25.9 483.596 26.124C483.792 26.3387 484.053 26.4927 484.38 26.586C484.874 26.39 485.262 26.166 485.542 25.914C485.831 25.6527 485.976 25.438 485.976 25.27C485.976 25.0087 485.91 24.7473 485.78 24.486C485.658 24.2247 485.486 24.01 485.262 23.842C485.047 23.674 484.818 23.59 484.576 23.59C484.38 23.59 484.184 23.6973 483.988 23.912C483.792 24.1173 483.628 24.3647 483.498 24.654C483.376 24.9433 483.316 25.1953 483.316 25.41ZM483.806 21V19.6H485.346V21H483.806ZM497.525 23.24C497.6 23.6413 497.665 24.1407 497.721 24.738C497.777 25.3353 497.805 25.8393 497.805 26.25C497.805 26.782 497.665 27.2067 497.385 27.524C497.105 27.8413 496.779 28 496.405 28C495.911 28 495.477 27.9113 495.103 27.734C494.73 27.5473 494.459 27.286 494.291 26.95C494.086 27.2953 493.82 27.5567 493.493 27.734C493.167 27.9113 492.807 28 492.415 28C491.986 28 491.603 27.9113 491.267 27.734C490.941 27.5567 490.717 27.2953 490.595 26.95C490.147 27.65 489.191 28 487.725 28C487.688 28 487.655 27.9627 487.627 27.888C487.599 27.8133 487.585 27.7107 487.585 27.58C487.585 27.3747 487.613 27.1973 487.669 27.048C487.725 26.8893 487.791 26.81 487.865 26.81C488.705 26.81 489.321 26.684 489.713 26.432C490.115 26.1707 490.315 25.76 490.315 25.2V24.444L491.295 24.36V25.41C491.295 25.8393 491.403 26.18 491.617 26.432C491.832 26.684 492.145 26.81 492.555 26.81C492.929 26.81 493.241 26.6793 493.493 26.418C493.755 26.1473 493.885 25.8347 493.885 25.48V24.584L494.865 24.5V25.41C494.865 25.83 495.01 26.1707 495.299 26.432C495.598 26.684 495.99 26.81 496.475 26.81C496.578 26.81 496.662 26.7773 496.727 26.712C496.793 26.6467 496.825 26.5627 496.825 26.46C496.825 26.1987 496.783 25.7693 496.699 25.172C496.625 24.5653 496.541 24.0287 496.447 23.562L497.525 23.24ZM513.517 22.89C513.601 23.3193 513.685 23.8327 513.769 24.43C513.862 25.018 513.909 25.438 513.909 25.69C513.909 25.97 513.825 26.2547 513.657 26.544C513.498 26.824 513.302 27.0293 513.069 27.16C512.481 27.4867 511.571 27.7433 510.339 27.93C509.116 28.1167 507.973 28.21 506.909 28.21C505.443 28.21 504.398 28 503.773 27.58C503.157 27.1507 502.849 26.544 502.849 25.76C502.849 25.2467 503.035 24.43 503.409 23.31L504.221 23.59C504.006 24.3553 503.899 24.9153 503.899 25.27C503.899 26.4367 504.972 27.02 507.119 27.02C508.136 27.02 509.088 26.964 509.975 26.852C510.871 26.74 511.585 26.6 512.117 26.432C512.658 26.264 512.929 26.11 512.929 25.97C512.929 25.83 512.873 25.4427 512.761 24.808C512.649 24.164 512.541 23.632 512.439 23.212L513.517 22.89ZM508.239 21.63H508.379H510.059V22.75H508.379H508.239H506.559V21.63H508.239ZM518.951 28C518.055 28 517.397 27.776 516.977 27.328C516.557 26.8707 516.338 26.1613 516.319 25.2L516.151 17.29L517.271 17.22V24.71C517.271 26.11 517.878 26.81 519.091 26.81L518.951 28ZM523.922 22.89C524.267 22.89 524.547 22.9787 524.762 23.156C524.986 23.324 525.149 23.5853 525.252 23.94C525.485 24.7147 525.602 25.5313 525.602 26.39C525.602 26.6047 525.536 26.838 525.406 27.09C525.284 27.342 525.121 27.5567 524.916 27.734C524.72 27.9113 524.514 28 524.3 28C524.029 28 523.698 27.9487 523.306 27.846C522.923 27.7433 522.554 27.594 522.2 27.398C521.854 27.202 521.598 26.9733 521.43 26.712C521.094 27.216 520.739 27.5567 520.366 27.734C519.992 27.9113 519.521 28 518.952 28C518.914 28 518.882 27.9627 518.854 27.888C518.826 27.8133 518.812 27.7107 518.812 27.58C518.812 27.3747 518.84 27.1973 518.896 27.048C518.952 26.8893 519.017 26.81 519.092 26.81C519.418 26.81 519.694 26.7727 519.918 26.698C520.151 26.6233 520.37 26.4833 520.576 26.278C520.781 26.0633 520.986 25.7507 521.192 25.34C521.509 24.696 521.794 24.206 522.046 23.87C522.298 23.5247 522.568 23.2773 522.858 23.128C523.147 22.9693 523.502 22.89 523.922 22.89ZM521.99 25.718C522.204 26.0353 522.568 26.2967 523.082 26.502C523.595 26.7073 524.052 26.81 524.454 26.81C524.51 26.81 524.547 26.7867 524.566 26.74C524.594 26.6933 524.608 26.6047 524.608 26.474C524.608 26.2873 524.575 25.9747 524.51 25.536C524.444 25.0973 524.365 24.752 524.272 24.5C524.225 24.36 524.15 24.2433 524.048 24.15C523.954 24.0567 523.842 24.01 523.712 24.01C523.366 24.01 523.072 24.122 522.83 24.346C522.596 24.5607 522.354 24.9387 522.102 25.48L521.99 25.718ZM535.191 28C534.565 28 534.052 27.888 533.651 27.664C533.259 27.44 532.969 27.0807 532.783 26.586C532.391 27.0713 531.854 27.4633 531.173 27.762C530.491 28.0607 529.824 28.21 529.171 28.21C528.685 28.21 528.317 28.0747 528.065 27.804C527.822 27.5333 527.701 27.132 527.701 26.6V25.83L528.611 25.76V26.04C528.611 26.3947 528.676 26.6467 528.807 26.796C528.937 26.9453 529.175 27.02 529.521 27.02C530.025 27.02 530.529 26.9033 531.033 26.67C531.537 26.4273 531.999 26.096 532.419 25.676C532.148 24.4347 531.765 23.0627 531.271 21.56L532.251 21.07C532.605 22.1807 532.932 23.4173 533.231 24.78C533.352 25.3307 533.501 25.7553 533.679 26.054C533.865 26.3433 534.085 26.544 534.337 26.656C534.598 26.7587 534.929 26.81 535.331 26.81L535.191 28ZM537.924 22.54C538.12 22.54 538.349 22.5867 538.61 22.68C538.871 22.7733 539.282 22.932 539.842 23.156C540.635 23.492 541.368 23.772 542.04 23.996C542.721 24.2107 543.426 24.3553 544.154 24.43L543.874 25.522L543.384 25.48C543.197 25.48 542.969 25.536 542.698 25.648C542.427 25.76 542.059 25.9373 541.592 26.18C540.883 26.5347 540.239 26.8333 539.66 27.076C539.091 27.3187 538.419 27.5333 537.644 27.72C536.869 27.9067 536.053 28 535.194 28C535.157 28 535.124 27.9627 535.096 27.888C535.068 27.8133 535.054 27.7107 535.054 27.58C535.054 27.3747 535.082 27.1973 535.138 27.048C535.194 26.8893 535.259 26.81 535.334 26.81C536.426 26.81 537.448 26.6607 538.4 26.362C539.361 26.0633 540.449 25.634 541.662 25.074C540.738 24.794 539.851 24.472 539.002 24.108C538.675 23.968 538.423 23.87 538.246 23.814C538.078 23.758 537.924 23.73 537.784 23.73C537.644 23.73 537.504 23.8047 537.364 23.954C537.233 24.094 537.047 24.3693 536.804 24.78L536.104 24.29C536.468 23.6367 536.776 23.184 537.028 22.932C537.289 22.6707 537.588 22.54 537.924 22.54ZM537.504 20.65V19.25H539.044V20.65H537.504Z" fill="black"/>
<path d="M174.826 169C174.06 169 173.533 168.865 173.244 168.594C173.16 169.21 172.931 169.775 172.558 170.288C172.194 170.801 171.69 171.235 171.046 171.59C170.075 172.113 168.815 172.509 167.266 172.78L167.056 172.136C167.028 172.015 166.981 171.856 166.916 171.66C169.016 171.287 170.439 170.825 171.186 170.274C171.932 169.723 172.306 169.135 172.306 168.51C172.306 168.202 172.25 167.726 172.138 167.082C172.026 166.429 171.895 165.808 171.746 165.22L172.838 164.87C172.968 165.738 173.104 166.373 173.244 166.774C173.384 167.166 173.58 167.437 173.832 167.586C174.084 167.735 174.462 167.81 174.966 167.81L174.826 169ZM181.271 169C179.749 169 178.615 168.851 177.869 168.552C177.047 168.851 176.035 169 174.831 169C174.793 169 174.761 168.963 174.733 168.888C174.705 168.813 174.691 168.711 174.691 168.58C174.691 168.375 174.719 168.197 174.775 168.048C174.831 167.889 174.896 167.81 174.971 167.81C175.484 167.81 175.913 167.791 176.259 167.754C176.053 167.493 175.951 167.161 175.951 166.76C175.951 166.265 176.063 165.757 176.287 165.234C176.511 164.711 176.805 164.277 177.169 163.932C177.542 163.577 177.929 163.4 178.331 163.4C178.723 163.4 179.077 163.512 179.395 163.736C179.712 163.96 179.964 164.259 180.151 164.632C180.337 165.005 180.431 165.411 180.431 165.85C180.431 166.569 180.104 167.203 179.451 167.754C179.908 167.791 180.561 167.81 181.411 167.81L181.271 169ZM176.861 166.41C176.861 166.662 176.954 166.9 177.141 167.124C177.337 167.339 177.598 167.493 177.925 167.586C178.419 167.39 178.807 167.166 179.087 166.914C179.376 166.653 179.521 166.438 179.521 166.27C179.521 166.009 179.455 165.747 179.325 165.486C179.203 165.225 179.031 165.01 178.807 164.842C178.592 164.674 178.363 164.59 178.121 164.59C177.925 164.59 177.729 164.697 177.533 164.912C177.337 165.117 177.173 165.365 177.043 165.654C176.921 165.943 176.861 166.195 176.861 166.41ZM177.351 162V160.6H178.891V162H177.351ZM191.07 164.24C191.145 164.641 191.21 165.141 191.266 165.738C191.322 166.335 191.35 166.839 191.35 167.25C191.35 167.782 191.21 168.207 190.93 168.524C190.65 168.841 190.323 169 189.95 169C189.455 169 189.021 168.911 188.648 168.734C188.275 168.547 188.004 168.286 187.836 167.95C187.631 168.295 187.365 168.557 187.038 168.734C186.711 168.911 186.352 169 185.96 169C185.531 169 185.148 168.911 184.812 168.734C184.485 168.557 184.261 168.295 184.14 167.95C183.692 168.65 182.735 169 181.27 169C181.233 169 181.2 168.963 181.172 168.888C181.144 168.813 181.13 168.711 181.13 168.58C181.13 168.375 181.158 168.197 181.214 168.048C181.27 167.889 181.335 167.81 181.41 167.81C182.25 167.81 182.866 167.684 183.258 167.432C183.659 167.171 183.86 166.76 183.86 166.2V165.444L184.84 165.36V166.41C184.84 166.839 184.947 167.18 185.162 167.432C185.377 167.684 185.689 167.81 186.1 167.81C186.473 167.81 186.786 167.679 187.038 167.418C187.299 167.147 187.43 166.835 187.43 166.48V165.584L188.41 165.5V166.41C188.41 166.83 188.555 167.171 188.844 167.432C189.143 167.684 189.535 167.81 190.02 167.81C190.123 167.81 190.207 167.777 190.272 167.712C190.337 167.647 190.37 167.563 190.37 167.46C190.37 167.199 190.328 166.769 190.244 166.172C190.169 165.565 190.085 165.029 189.992 164.562L191.07 164.24ZM198.773 164.24C199.315 164.24 199.767 164.445 200.131 164.856C200.505 165.257 200.78 165.761 200.957 166.368C201.135 166.975 201.223 167.572 201.223 168.16C201.223 169 201.088 169.672 200.817 170.176C200.556 170.689 200.108 171.137 199.473 171.52C198.437 172.136 196.711 172.556 194.293 172.78L194.013 171.59C195.647 171.431 196.921 171.235 197.835 171.002C198.75 170.769 199.389 170.484 199.753 170.148C200.127 169.821 200.313 169.415 200.313 168.93V168.832C199.744 168.991 199.067 169.07 198.283 169.07C197.705 169.07 197.266 168.935 196.967 168.664C196.678 168.384 196.533 168.006 196.533 167.53C196.533 166.942 196.627 166.401 196.813 165.906C197.009 165.402 197.275 165.001 197.611 164.702C197.957 164.394 198.344 164.24 198.773 164.24ZM197.443 167.04C197.443 167.292 197.532 167.497 197.709 167.656C197.896 167.805 198.157 167.88 198.493 167.88C199.1 167.88 199.674 167.824 200.215 167.712C200.103 167.021 199.903 166.471 199.613 166.06C199.333 165.64 199.007 165.43 198.633 165.43C198.288 165.43 198.003 165.593 197.779 165.92C197.555 166.237 197.443 166.611 197.443 167.04ZM205.322 164.8C205.621 166.293 205.77 167.553 205.77 168.58C205.77 169.336 205.649 169.971 205.406 170.484C205.173 171.007 204.739 171.464 204.104 171.856C203.479 172.248 202.587 172.579 201.43 172.85L201.01 171.73C202.037 171.459 202.825 171.184 203.376 170.904C203.927 170.633 204.3 170.353 204.496 170.064C204.692 169.784 204.79 169.476 204.79 169.14C204.79 168.617 204.734 167.987 204.622 167.25C204.519 166.503 204.389 165.803 204.23 165.15L205.322 164.8ZM209.875 164.8C210.174 166.293 210.323 167.553 210.323 168.58C210.323 169.336 210.202 169.971 209.959 170.484C209.726 171.007 209.292 171.464 208.657 171.856C208.032 172.248 207.14 172.579 205.983 172.85L205.563 171.73C206.59 171.459 207.378 171.184 207.929 170.904C208.48 170.633 208.853 170.353 209.049 170.064C209.245 169.784 209.343 169.476 209.343 169.14C209.343 168.617 209.287 167.987 209.175 167.25C209.072 166.503 208.942 165.803 208.783 165.15L209.875 164.8ZM208.503 162.84V161.44H210.043V162.84H208.503ZM214.428 164.8C214.726 166.293 214.876 167.553 214.876 168.58C214.876 169.336 214.754 169.971 214.512 170.484C214.278 171.007 213.844 171.464 213.21 171.856C212.584 172.248 211.693 172.579 210.536 172.85L210.116 171.73C211.142 171.459 211.931 171.184 212.482 170.904C213.032 170.633 213.406 170.353 213.602 170.064C213.798 169.784 213.896 169.476 213.896 169.14C213.896 168.617 213.84 167.987 213.728 167.25C213.625 166.503 213.494 165.803 213.336 165.15L214.428 164.8Z" fill="black"/>
<path d="M37.2438 28C36.4784 28 35.9511 27.8647 35.6618 27.594C35.5778 28.21 35.3491 28.7747 34.9758 29.288C34.6118 29.8013 34.1078 30.2353 33.4638 30.59C32.4931 31.1127 31.2331 31.5093 29.6837 31.78L29.4737 31.136C29.4457 31.0147 29.3991 30.856 29.3337 30.66C31.4338 30.2867 32.8571 29.8247 33.6038 29.274C34.3504 28.7233 34.7238 28.1353 34.7238 27.51C34.7238 27.202 34.6678 26.726 34.5558 26.082C34.4438 25.4287 34.3131 24.808 34.1638 24.22L35.2558 23.87C35.3864 24.738 35.5218 25.3727 35.6618 25.774C35.8018 26.166 35.9978 26.4367 36.2498 26.586C36.5018 26.7353 36.8798 26.81 37.3838 26.81L37.2438 28ZM43.6887 28C42.1673 28 41.0333 27.8507 40.2867 27.552C39.4653 27.8507 38.4527 28 37.2487 28C37.2113 28 37.1787 27.9627 37.1507 27.888C37.1227 27.8133 37.1087 27.7107 37.1087 27.58C37.1087 27.3747 37.1367 27.1973 37.1927 27.048C37.2487 26.8893 37.314 26.81 37.3887 26.81C37.902 26.81 38.3313 26.7913 38.6767 26.754C38.4713 26.4927 38.3687 26.1613 38.3687 25.76C38.3687 25.2653 38.4807 24.7567 38.7047 24.234C38.9287 23.7113 39.2227 23.2773 39.5867 22.932C39.96 22.5773 40.3473 22.4 40.7487 22.4C41.1407 22.4 41.4953 22.512 41.8127 22.736C42.13 22.96 42.382 23.2587 42.5687 23.632C42.7553 24.0053 42.8487 24.4113 42.8487 24.85C42.8487 25.5687 42.522 26.2033 41.8687 26.754C42.326 26.7913 42.9793 26.81 43.8287 26.81L43.6887 28ZM39.2787 25.41C39.2787 25.662 39.372 25.9 39.5587 26.124C39.7547 26.3387 40.016 26.4927 40.3427 26.586C40.8373 26.39 41.2247 26.166 41.5047 25.914C41.794 25.6527 41.9387 25.438 41.9387 25.27C41.9387 25.0087 41.8733 24.7473 41.7427 24.486C41.6213 24.2247 41.4487 24.01 41.2247 23.842C41.01 23.674 40.7813 23.59 40.5387 23.59C40.3427 23.59 40.1467 23.6973 39.9507 23.912C39.7547 24.1173 39.5913 24.3647 39.4607 24.654C39.3393 24.9433 39.2787 25.1953 39.2787 25.41ZM39.7687 21V19.6H41.3087V21H39.7687ZM53.4881 23.24C53.5628 23.6413 53.6281 24.1407 53.6841 24.738C53.7401 25.3353 53.7681 25.8393 53.7681 26.25C53.7681 26.782 53.6281 27.2067 53.3481 27.524C53.0681 27.8413 52.7415 28 52.3681 28C51.8735 28 51.4395 27.9113 51.0661 27.734C50.6928 27.5473 50.4221 27.286 50.2541 26.95C50.0488 27.2953 49.7828 27.5567 49.4561 27.734C49.1295 27.9113 48.7701 28 48.3781 28C47.9488 28 47.5661 27.9113 47.2301 27.734C46.9035 27.5567 46.6795 27.2953 46.5581 26.95C46.1101 27.65 45.1535 28 43.6881 28C43.6508 28 43.6181 27.9627 43.5901 27.888C43.5621 27.8133 43.5481 27.7107 43.5481 27.58C43.5481 27.3747 43.5761 27.1973 43.6321 27.048C43.6881 26.8893 43.7535 26.81 43.8281 26.81C44.6681 26.81 45.2841 26.684 45.6761 26.432C46.0775 26.1707 46.2781 25.76 46.2781 25.2V24.444L47.2581 24.36V25.41C47.2581 25.8393 47.3655 26.18 47.5801 26.432C47.7948 26.684 48.1075 26.81 48.5181 26.81C48.8915 26.81 49.2041 26.6793 49.4561 26.418C49.7175 26.1473 49.8481 25.8347 49.8481 25.48V24.584L50.8281 24.5V25.41C50.8281 25.83 50.9728 26.1707 51.2621 26.432C51.5608 26.684 51.9528 26.81 52.4381 26.81C52.5408 26.81 52.6248 26.7773 52.6901 26.712C52.7555 26.6467 52.7881 26.5627 52.7881 26.46C52.7881 26.1987 52.7461 25.7693 52.6621 25.172C52.5875 24.5653 52.5035 24.0287 52.4101 23.562L53.4881 23.24ZM65.3914 28C64.6634 28 64.0987 27.874 63.6974 27.622C63.3054 27.37 63.0207 26.9407 62.8434 26.334C62.5261 26.4367 62.1434 26.5207 61.6954 26.586C61.2567 26.642 60.8321 26.67 60.4214 26.67C59.8614 26.67 59.4507 26.572 59.1894 26.376C58.9374 26.18 58.8114 25.928 58.8114 25.62C58.8114 24.976 59.2221 24.2667 60.0434 23.492C60.5661 23.0067 61.3127 22.456 62.2834 21.84C62.2461 21.476 62.2087 21.1167 62.1714 20.762L63.2214 20.51L63.6414 24.78C63.7161 25.508 63.8887 26.0307 64.1594 26.348C64.4301 26.656 64.8874 26.81 65.5314 26.81L65.3914 28ZM59.7914 25.06C59.7914 25.2 59.8847 25.3073 60.0714 25.382C60.2581 25.4473 60.5147 25.48 60.8414 25.48C61.0747 25.48 61.3594 25.4613 61.6954 25.424C62.0407 25.3773 62.3581 25.326 62.6474 25.27C62.5821 24.514 62.4981 23.7207 62.3954 22.89C61.6207 23.3847 60.9907 23.8327 60.5054 24.234C60.0294 24.626 59.7914 24.9013 59.7914 25.06ZM68.4234 23.1C68.5074 23.5293 68.5914 24.0427 68.6754 24.64C68.7687 25.228 68.8154 25.648 68.8154 25.9C68.8154 26.236 68.7267 26.572 68.5494 26.908C68.3721 27.2347 68.1341 27.4727 67.8354 27.622C67.3221 27.874 66.5054 28 65.3854 28C65.3481 28 65.3154 27.9627 65.2874 27.888C65.2594 27.8133 65.2454 27.7107 65.2454 27.58C65.2454 27.3747 65.2734 27.1973 65.3294 27.048C65.3854 26.8893 65.4507 26.81 65.5254 26.81C67.0654 26.81 67.8354 26.6467 67.8354 26.32C67.8354 26.1147 67.7794 25.6947 67.6674 25.06C67.5647 24.416 67.4574 23.87 67.3454 23.422L68.4234 23.1ZM65.1754 31.08V29.68H66.7154V31.08H65.1754ZM74.773 28C74.045 28 73.5317 27.8787 73.233 27.636C73.2237 28.3733 73.0977 28.9987 72.855 29.512C72.6217 30.0347 72.1877 30.4873 71.553 30.87C70.9277 31.2527 70.041 31.5793 68.893 31.85L68.473 30.73C69.4997 30.4593 70.2884 30.184 70.839 29.904C71.3897 29.6333 71.763 29.3533 71.959 29.064C72.155 28.784 72.253 28.476 72.253 28.14C72.253 27.552 72.197 26.9127 72.085 26.222C71.9824 25.522 71.8517 24.8547 71.693 24.22L72.785 23.87C72.9157 24.738 73.051 25.3727 73.191 25.774C73.331 26.166 73.527 26.4367 73.779 26.586C74.031 26.7353 74.409 26.81 74.913 26.81L74.773 28ZM77.508 22.54C77.704 22.54 77.9326 22.5867 78.194 22.68C78.4553 22.7733 78.866 22.932 79.426 23.156C80.2193 23.492 80.952 23.772 81.624 23.996C82.3053 24.2107 83.01 24.3553 83.738 24.43L83.528 25.41C83.0986 25.41 82.5946 25.536 82.016 25.788C82.128 26.152 82.3473 26.4133 82.674 26.572C83.0006 26.7307 83.542 26.81 84.298 26.81H84.578L84.438 28H84.158C83.2433 28 82.5666 27.8647 82.128 27.594C81.6893 27.3233 81.3953 26.8427 81.246 26.152L80.714 26.404C80.042 26.7307 79.44 27.0013 78.908 27.216C78.376 27.4307 77.7553 27.6173 77.046 27.776C76.346 27.9253 75.59 28 74.778 28C74.7406 28 74.708 27.9627 74.68 27.888C74.652 27.8133 74.638 27.7107 74.638 27.58C74.638 27.3747 74.666 27.1973 74.722 27.048C74.778 26.8893 74.8433 26.81 74.918 26.81C76.01 26.81 77.032 26.6607 77.984 26.362C78.9453 26.0633 80.0326 25.634 81.246 25.074C80.322 24.794 79.4353 24.472 78.586 24.108C78.2593 23.968 78.0073 23.87 77.83 23.814C77.662 23.758 77.508 23.73 77.368 23.73C77.228 23.73 77.088 23.8047 76.948 23.954C76.8173 24.094 76.6306 24.3693 76.388 24.78L75.688 24.29C76.052 23.6367 76.36 23.184 76.612 22.932C76.8733 22.6707 77.172 22.54 77.508 22.54ZM77.438 31.08V29.68H78.978V31.08H77.438ZM87.482 23.1C87.566 23.5293 87.65 24.0427 87.734 24.64C87.8273 25.228 87.874 25.648 87.874 25.9C87.874 26.236 87.7853 26.572 87.608 26.908C87.4307 27.2347 87.1927 27.4727 86.894 27.622C86.3807 27.874 85.564 28 84.444 28C84.4067 28 84.374 27.9627 84.346 27.888C84.318 27.8133 84.304 27.7107 84.304 27.58C84.304 27.3747 84.332 27.1973 84.388 27.048C84.444 26.8893 84.5093 26.81 84.584 26.81C86.124 26.81 86.894 26.6467 86.894 26.32C86.894 26.0493 86.8473 25.62 86.754 25.032C86.67 24.4347 86.5533 23.898 86.404 23.422L87.482 23.1ZM86.334 20.58H86.474H88.154V21.7H86.474H86.334H84.654V20.58H86.334Z" fill="black"/>
</svg>
