<svg width="24" height="24" viewBox="0 0 24 24" fill="none" xmlns="http://www.w3.org/2000/svg">
<path d="M11.7368 2.55511C11.8754 2.48702 12.0403 2.47898 12.1851 2.5307L12.2466 2.55707C12.5762 2.72697 12.905 3.04868 13.1528 3.44867C13.4017 3.85052 13.5405 4.28508 13.5405 4.64984V7.71039C13.5406 7.92171 13.6187 8.11253 13.7104 8.25433C13.8028 8.39699 13.9403 8.53918 14.1167 8.62738L14.1304 8.63422L14.145 8.64008L14.5015 8.79047L10.4546 12.8373C10.4326 12.5321 10.3023 12.2351 10.0269 12.0532C9.7608 11.8775 9.44904 11.8672 9.16846 11.9575L9.05225 12.0004L4.04248 14.1606C3.75926 14.2825 3.58553 14.2369 3.50146 14.1821C3.41817 14.1275 3.31006 13.9902 3.31006 13.6899V12.3696C3.31017 12.1471 3.39699 11.8736 3.56201 11.6215C3.7274 11.3689 3.94072 11.1847 4.14111 11.102L4.14795 11.0991L9.84717 8.64984L9.86084 8.64398L9.87354 8.63715C10.05 8.5489 10.1874 8.40683 10.2798 8.2641C10.3716 8.12224 10.4497 7.93157 10.4497 7.72015V4.65961C10.4498 4.29437 10.5889 3.85676 10.8374 3.4516C11.0853 3.04759 11.4124 2.72394 11.7368 2.55511Z" fill="black" stroke="black"/>
<path opacity="0.4" d="M21.19 12.37V13.69C21.19 14.54 20.55 14.96 19.76 14.62L14.75 12.46C14.35 12.3 14.04 12.5 14.04 12.93V15.84C14.04 16.07 14.17 16.4 14.34 16.56L16.66 18.89C16.9 19.13 17.01 19.61 16.9 19.94L16.45 21.3C16.25 21.89 15.58 22.16 15.03 21.89L12.65 19.89C12.29 19.58 11.7 19.58 11.34 19.89L8.96004 21.89C8.41004 22.17 7.74004 21.89 7.56004 21.3L7.11004 19.94C7.00004 19.6 7.11004 19.13 7.35004 18.89L9.67004 16.56C9.83004 16.4 9.96004 16.07 9.96004 15.84V14.04L15.38 8.62L20.05 10.63C20.68 10.9 21.19 11.69 21.19 12.37Z" fill="black"/>
</svg>
