<svg width="15" height="15" viewBox="0 0 15 15" fill="none" xmlns="http://www.w3.org/2000/svg">
<path d="M5.29885 12.7278L6.66611 11.5777C6.87149 11.4016 7.21184 11.4016 7.41722 11.5777L8.78448 12.7278C9.10135 12.8862 9.48864 12.7278 9.60601 12.3875L9.8642 11.607C9.92875 11.4192 9.8642 11.1434 9.72337 11.0026L8.39132 9.66467C8.29156 9.57078 8.21528 9.38301 8.21528 9.24804V7.57564C8.21528 7.32919 8.39719 7.21182 8.62604 7.30571L11.5073 8.54974C11.9591 8.74339 12.3288 8.5028 12.3288 8.00988V7.2529C12.3288 6.85974 12.0354 6.4079 11.6716 6.25533L8.39132 4.84113C8.29743 4.80005 8.21528 4.67683 8.21528 4.5712V2.81078C8.21528 2.25919 7.81038 1.60783 7.31746 1.35551C7.14142 1.26748 6.93604 1.26748 6.76 1.35551C6.26708 1.60783 5.86219 2.26505 5.86219 2.81665V4.57707C5.86219 4.68269 5.78003 4.80592 5.68614 4.847L2.41177 6.2612C2.04795 6.4079 1.75455 6.85974 1.75455 7.2529V8.00988C1.75455 8.5028 2.12423 8.74339 2.57607 8.54974L5.45729 7.30571C5.68028 7.20596 5.86805 7.32919 5.86805 7.57564V9.24804C5.86805 9.38301 5.79177 9.57078 5.69788 9.66467L4.36583 11.0026C4.225 11.1434 4.16045 11.4134 4.225 11.607L4.48319 12.3875C4.58882 12.7278 4.97611 12.8921 5.29885 12.7278Z" stroke="white" stroke-linecap="round" stroke-linejoin="round"/>
</svg>
