<svg width="59" height="44" viewBox="0 0 59 44" fill="none" xmlns="http://www.w3.org/2000/svg">
<path d="M26.598 8.9097C25.4619 8.9097 25.0832 9.38149 24.141 9.55953C19.9484 10.3562 17.6357 12.7197 17.7439 12.6885C20.3045 11.9808 21.8689 11.9497 22.5316 11.9541C22.8246 11.9541 23.0004 11.9808 23.05 11.9942C23.3025 12.0609 23.4918 12.2879 23.4918 12.5594C23.4918 12.6217 23.4783 12.684 23.4603 12.7375C23.4603 12.7419 23.4422 12.7909 23.4332 12.8042C23.2304 13.276 21.5353 17.215 21.2197 17.8471C18.8394 22.5427 17.0722 27.3185 15.9496 32.0632L15.9091 32.2457H20.4488L20.4759 32.1344C21.8689 26.6242 24.2717 20.8648 27.4275 15.4703C28.7123 13.276 30.1144 11.144 31.6021 9.13669L31.7734 8.9008H26.6025L26.598 8.9097Z" fill="#231F20"/>
<path d="M48.3455 34.6002C47.1553 36.1313 45.7848 37.4666 44.3828 38.4547C42.3766 39.6876 40.6364 39.9769 39.4824 39.2648C38.2516 38.5037 38.0082 36.8435 38.0217 35.5839C38.0307 34.6136 38.1209 33.6789 38.5086 32.3169C39.4643 32.2324 42.7643 31.7828 45.5368 29.6954C45.7082 29.5663 45.8885 29.4372 46.0688 29.3126C46.3348 29.1257 46.6098 28.9298 46.8758 28.7162C50.6041 25.7341 52.6327 21.8752 51.6995 19.5474C51.5868 19.267 51.1721 18.5949 50.7438 18.2566C50.3651 17.9584 49.8918 17.629 49.2471 17.4777C46.2942 16.7834 42.3045 18.7061 39.0856 22.3826C38.3463 23.2282 37.652 24.154 37.0254 25.1421C36.8225 25.4581 36.6332 25.783 36.4529 26.0991L36.3086 26.3572L36.2996 26.375L36.286 26.3973C35.9254 27.1317 35.452 28.102 35.4069 28.2043C35.1094 28.8942 34.857 29.6019 34.6496 30.3007C34.5188 30.2873 34.3971 30.2517 34.2934 30.1939C33.9508 30.0069 33.5451 29.3482 33.5451 28.5515C33.5451 27.2162 33.9869 26.0234 34.1897 25.3736C36.516 17.9005 40.7176 11.8785 41.5832 10.5833L41.8311 10.2139L41.3893 10.1338C36.6377 9.25693 30.502 12.7064 25.5701 18.8619C23.6902 22.525 22.1619 26.2949 21.0664 29.9847C21.382 29.2325 21.7336 28.4847 22.1123 27.7459C22.5992 26.7934 23.1447 25.8409 23.7307 24.9151C26.2418 20.9538 29.4697 17.589 32.8283 15.4659C33.3873 15.1098 33.7524 14.963 33.9733 14.8917C34.4061 14.7493 34.3701 14.9719 34.3205 15.0787C34.2483 15.23 34.1492 15.4348 33.9959 15.7374L33.7795 16.1647C32.1295 19.396 28.6943 26.1258 30.1053 30.1761C30.7996 32.1745 33.3377 32.5217 33.4459 32.535C33.6668 32.5617 33.9012 32.5884 34.1447 32.6062C33.7209 35.5171 34.2438 38.0007 35.6324 39.6208C35.9389 39.9814 36.2906 40.2974 36.6783 40.5689C37.1787 40.916 38.0442 41.3522 38.6348 41.4902C39.0586 41.5881 39.7574 41.6727 40.1541 41.6727C42.8996 41.6727 44.2655 40.8893 44.9959 40.4665L45.0725 40.422C48.075 38.704 50.825 35.1076 50.9422 34.9563L51.2983 34.4845H48.4491L48.359 34.6002H48.3455ZM40.6184 27.4833C40.7537 27.2607 40.8709 27.0605 40.9791 26.8735C40.9971 26.8424 41.0151 26.8112 41.0287 26.78L41.0557 26.7266C41.1414 26.5842 41.227 26.4418 41.3172 26.3038C42.0836 25.0976 42.9311 23.976 43.8418 22.9701L43.9545 22.8455C44.5901 22.1378 46.2807 20.2551 48.1471 19.4227C48.35 19.3337 48.5528 19.2892 48.7467 19.2892C48.9901 19.2892 49.22 19.3604 49.4094 19.4984C50.1082 20.0103 49.9459 21.5948 49.0217 23.2594C48.8098 23.6377 48.5618 24.0205 48.2868 24.3899C47.9082 24.8929 47.4979 25.3424 47.0606 25.7341L47.0155 25.7741V25.783C46.8487 25.9522 46.6729 26.1258 46.5016 26.2904C44.1483 28.5337 41.4524 29.9758 39.3426 30.1494C39.7123 29.2503 40.1541 28.3334 40.6229 27.4833H40.6184Z" fill="#939598"/>
<path d="M21.0393 18.2029C19.6011 20.6108 17.8835 22.6538 16.1794 23.9668C14.5249 25.2442 13.0508 25.6803 12.1401 25.164C11.2294 24.6433 10.8733 23.1701 11.1663 21.1137C11.4774 18.9373 12.4557 16.3602 13.9208 13.8544C16.4634 9.50585 19.9167 6.45255 22.0671 6.45255C22.3962 6.45255 22.6938 6.52376 22.9507 6.67064C23.7036 7.09792 24.0507 8.15723 24.0102 9.59042C24.0507 9.58152 24.0913 9.57261 24.1319 9.56371C24.8983 9.41683 25.2905 9.07857 26.0253 8.95839C25.827 6.82642 24.9839 5.24636 23.5729 4.37399C21.8237 3.29242 19.4389 3.46601 16.8557 4.86358C14.3311 6.23446 11.9012 8.62013 10.0167 11.5889C8.13232 14.5576 7.01429 17.7578 6.87002 20.5974C6.72125 23.4994 7.60486 25.6937 9.35404 26.7797C11.5991 28.1684 14.8721 27.4607 18.0954 24.9549C18.9339 22.6983 19.9122 20.4461 21.0302 18.2073L21.0393 18.2029Z" fill="#939598"/>
<path d="M9.27294 32.4372C10.5751 32.4372 11.6307 31.395 11.6307 30.1093C11.6307 28.8237 10.5751 27.7815 9.27294 27.7815C7.97078 27.7815 6.91516 28.8237 6.91516 30.1093C6.91516 31.395 7.97078 32.4372 9.27294 32.4372Z" fill="#231F20"/>
</svg>
