<svg width="24" height="24" viewBox="0 0 24 24" fill="none" xmlns="http://www.w3.org/2000/svg">
<path d="M4 10C4 6.229 4 4.343 5.172 3.172C6.344 2.001 8.229 2 12 2C15.771 2 17.657 2 18.828 3.172C19.999 4.344 20 6.229 20 10V12C20 15.771 20 17.657 18.828 18.828C17.656 19.999 15.771 20 12 20C8.229 20 6.343 20 5.172 18.828C4.001 17.656 4 15.771 4 12V10Z" stroke="black"/>
<path d="M15.5 16H17M7 16H8.5M6 19.5V21C6 21.2652 6.10536 21.5196 6.29289 21.7071C6.48043 21.8946 6.73478 22 7 22H8.5C8.76522 22 9.01957 21.8946 9.20711 21.7071C9.39464 21.5196 9.5 21.2652 9.5 21V20M18 19.5V21C18 21.2652 17.8946 21.5196 17.7071 21.7071C17.5196 21.8946 17.2652 22 17 22H15.5C15.2348 22 14.9804 21.8946 14.7929 21.7071C14.6054 21.5196 14.5 21.2652 14.5 21V20M20 9H21C21.2652 9 21.5196 9.10536 21.7071 9.29289C21.8946 9.48043 22 9.73478 22 10V11C22 11.1552 21.9639 11.3084 21.8944 11.4472C21.825 11.5861 21.7242 11.7069 21.6 11.8L20 13H4L2.4 11.8C2.2758 11.7069 2.175 11.5861 2.10557 11.4472C2.03614 11.3084 2 11.1552 2 11V10C2 9.73478 2.10536 9.48043 2.29289 9.29289C2.48043 9.10536 2.73478 9 3 9H4" stroke="black" stroke-linecap="round" stroke-linejoin="round"/>
<path d="M19.5 5H4.5" stroke="black" stroke-linecap="round"/>
</svg>
